<svg xmlns="http://www.w3.org/2000/svg" xmlns:xlink="http://www.w3.org/1999/xlink" width="150" zoomAndPan="magnify" viewBox="0 0 112.5 30.000001" height="40" preserveAspectRatio="xMidYMid meet" version="1.0"><defs><clipPath id="706e505347"><path d="M 7.125 3 L 26 3 L 26 27.148438 L 7.125 27.148438 Z M 7.125 3 " clip-rule="nonzero"/></clipPath><clipPath id="c0ed8b5976"><path d="M 64 1.746094 L 69 1.746094 L 69 12 L 64 12 Z M 64 1.746094 " clip-rule="nonzero"/></clipPath></defs><g clip-path="url(#706e505347)"><path fill="#ffffff" d="M 25.753906 15.734375 C 25.753906 11.941406 25.734375 8.144531 25.777344 4.351562 C 25.785156 3.546875 25.5625 3.304688 24.769531 3.355469 C 23.785156 3.425781 22.796875 3.425781 21.8125 3.355469 C 21.089844 3.3125 20.910156 3.546875 20.921875 4.246094 C 20.964844 6.589844 20.945312 8.929688 20.945312 11.429688 C 16.121094 8.347656 11.257812 10.074219 9.160156 12.640625 C 6.511719 15.894531 6.511719 21.308594 9.210938 24.457031 C 10.527344 25.992188 12.199219 26.882812 14.191406 27.167969 C 16.949219 27.570312 19.429688 26.902344 21.558594 25.039062 C 22.289062 26.828125 22.289062 26.828125 24.207031 26.828125 C 24.394531 26.816406 24.582031 26.820312 24.769531 26.839844 C 25.5625 26.96875 25.796875 26.679688 25.777344 25.863281 C 25.734375 22.484375 25.753906 19.113281 25.753906 15.734375 Z M 16.480469 23.140625 C 13.789062 23.121094 11.925781 21.171875 11.9375 18.394531 C 11.945312 15.617188 13.960938 13.835938 16.609375 13.890625 C 19.257812 13.941406 21.132812 15.902344 21.113281 18.574219 C 21.089844 21.246094 19.121094 23.164062 16.480469 23.140625 Z M 16.480469 23.140625 " fill-opacity="1" fill-rule="nonzero"/></g><path fill="#ffffff" d="M 44.789062 17.132812 C 43.578125 17.640625 42.519531 18.117188 41.429688 18.542969 C 40.769531 18.796875 40.335938 19.136719 39.996094 19.84375 C 38.683594 22.632812 34.867188 23.363281 32.792969 21.328125 C 32.164062 20.726562 32.207031 20.492188 33.035156 20.152344 C 36.585938 18.703125 40.082031 17.152344 43.621094 15.703125 C 44.34375 15.417969 44.382812 15.140625 44.097656 14.484375 C 41.566406 8.792969 36.160156 7.246094 31.042969 10.085938 C 26.847656 12.417969 25.332031 16.761719 27.152344 21.0625 C 29.027344 25.527344 33.226562 27.496094 37.855469 26.097656 C 42.074219 24.828125 44.925781 21.203125 44.789062 17.132812 Z M 33.417969 13.160156 C 35.195312 12.300781 37.15625 12.542969 38.386719 13.785156 C 38.585938 13.984375 39.191406 14.261719 38.472656 14.558594 C 36.003906 15.617188 33.53125 16.65625 31.03125 17.703125 C 30.777344 15.605469 31.636719 14.015625 33.417969 13.160156 Z M 33.417969 13.160156 " fill-opacity="1" fill-rule="nonzero"/><path fill="#ffffff" d="M 80.691406 9.683594 C 79.3125 9.25 77.933594 9.257812 76.472656 9.324219 C 73.207031 9.449219 70.6875 10.722656 69.085938 13.519531 C 66.300781 18.382812 68.429688 26.574219 77.488281 26.691406 C 77.839844 26.671875 78.488281 26.660156 79.121094 26.574219 C 83.160156 26.066406 86.242188 22.949219 86.59375 19.03125 C 87.007812 14.484375 84.8125 11.007812 80.691406 9.683594 Z M 77.320312 22.527344 C 74.574219 22.527344 72.710938 20.609375 72.722656 17.832031 C 72.730469 15.054688 74.671875 13.296875 77.375 13.308594 C 80.074219 13.316406 81.886719 15.195312 81.898438 17.960938 C 81.910156 20.726562 80.011719 22.527344 77.320312 22.527344 Z M 77.320312 22.527344 " fill-opacity="1" fill-rule="nonzero"/><path fill="#ffffff" d="M 104.839844 25.492188 C 104.839844 26.003906 104.671875 26.152344 104.183594 26.140625 C 103.082031 26.109375 101.980469 26.085938 100.878906 26.152344 C 100.191406 26.183594 99.976562 25.992188 99.988281 25.269531 C 100.042969 22.726562 100.019531 20.195312 100.007812 17.652344 C 100.011719 17.046875 99.957031 16.445312 99.851562 15.851562 C 99.542969 14.25 98.578125 13.328125 97.160156 13.179688 C 95.546875 13 94.148438 13.730469 93.492188 15.109375 C 93.132812 15.871094 93.003906 16.6875 93.003906 17.535156 C 93.015625 20.109375 92.984375 22.695312 93.027344 25.269531 C 93.046875 25.980469 92.835938 26.183594 92.136719 26.152344 C 91.042969 26.085938 89.941406 26.109375 88.839844 26.140625 C 88.351562 26.152344 88.183594 26.003906 88.183594 25.492188 C 88.191406 20.378906 88.191406 15.261719 88.183594 10.136719 C 88.183594 9.671875 88.289062 9.429688 88.808594 9.480469 C 89.113281 9.503906 89.414062 9.503906 89.71875 9.480469 C 91.011719 9.386719 92.292969 9.300781 92.21875 11.335938 C 94.53125 9.121094 97.117188 8.601562 99.945312 9.300781 C 102.773438 10 104.617188 12.332031 104.757812 15.605469 C 104.894531 18.882812 104.808594 22.199219 104.839844 25.492188 Z M 104.839844 25.492188 " fill-opacity="1" fill-rule="nonzero"/><path fill="#ffffff" d="M 61.582031 9.480469 L 59.972656 13.347656 C 58.308594 17.335938 56.636719 21.308594 55.003906 25.304688 C 54.757812 25.917969 54.460938 26.183594 53.773438 26.152344 C 52.492188 26.066406 50.964844 26.511719 49.980469 25.972656 C 48.996094 25.429688 48.847656 23.757812 48.347656 22.578125 C 46.664062 18.605469 45.03125 14.609375 43.386719 10.625 C 43.238281 10.285156 42.996094 9.96875 43.082031 9.480469 C 44.585938 9.480469 46.089844 9.523438 47.59375 9.460938 C 48.253906 9.4375 48.316406 9.875 48.476562 10.285156 C 49.554688 13.191406 50.648438 16.105469 51.738281 19.007812 C 51.875 19.390625 52.058594 19.761719 52.300781 20.332031 C 53.574219 16.941406 54.824219 13.742188 55.96875 10.5 C 56.265625 9.652344 56.65625 9.417969 57.492188 9.460938 C 58.808594 9.535156 60.132812 9.480469 61.582031 9.480469 Z M 61.582031 9.480469 " fill-opacity="1" fill-rule="nonzero"/><path fill="#ffffff" d="M 67.167969 25.207031 C 67.167969 25.949219 66.976562 26.195312 66.214844 26.152344 C 65.082031 26.078125 63.9375 26.109375 62.800781 26.140625 C 62.261719 26.160156 62.082031 26.003906 62.082031 25.441406 C 62.101562 21.5 62.101562 17.558594 62.082031 13.613281 C 62.082031 13.128906 62.25 12.863281 62.675781 12.640625 C 63.386719 12.289062 64.0625 11.867188 64.753906 11.464844 L 67.136719 10.871094 C 67.148438 15.648438 67.125 20.429688 67.167969 25.207031 Z M 67.167969 25.207031 " fill-opacity="1" fill-rule="nonzero"/><g clip-path="url(#c0ed8b5976)"><path fill="#4e5afd" d="M 68.195312 10.476562 C 67.835938 10.5625 67.496094 10.730469 67.136719 10.871094 L 64.753906 11.464844 C 64.382812 8.804688 64.570312 6.101562 64.328125 3.421875 C 64.285156 3.015625 64.457031 2.792969 64.847656 2.6875 C 65.832031 2.402344 66.808594 2.105469 67.78125 1.796875 C 68.261719 1.648438 68.484375 1.765625 68.503906 2.296875 C 68.589844 4.753906 68.671875 7.222656 68.777344 9.671875 C 68.800781 10.128906 68.664062 10.371094 68.195312 10.476562 Z M 68.195312 10.476562 " fill-opacity="1" fill-rule="nonzero"/></g></svg>