<svg id="Capa_1" data-name="Capa 1" xmlns="http://www.w3.org/2000/svg" viewBox="0 0 921.5 241"><defs><style>.cls-1{fill:#201e1e;}.cls-2{fill:#4e5afd;}</style></defs><path class="cls-1" d="M212.8,434.3c0-35.8-.2-71.6.2-107.4.1-7.6-2-9.9-9.5-9.4a199.8,199.8,0,0,1-27.9,0c-6.8-.4-8.5,1.8-8.4,8.4.4,22.1.2,44.2.2,67.8C121.9,364.6,76,380.9,56.2,405.1c-25,30.7-25,81.8.5,111.5,12.4,14.5,28.2,22.9,47,25.6,26,3.8,49.4-2.5,69.5-20.1,6.9,16.9,6.9,16.9,25,16.9a31.3,31.3,0,0,1,5.3.1c7.5,1.2,9.7-1.5,9.5-9.2C212.6,498,212.8,466.2,212.8,434.3Zm-87.5,69.9c-25.4-.2-43-18.6-42.9-44.8s19.1-43,44.1-42.5,42.7,19,42.5,44.2S150.2,504.4,125.3,504.2Z" transform="translate(-37.5 -302.3)"/><path class="cls-1" d="M392.4,447.5c-11.4,4.8-21.4,9.3-31.7,13.3-6.2,2.4-10.3,5.6-13.5,12.3-12.4,26.3-48.4,33.2-68,14-5.9-5.7-5.5-7.9,2.3-11.1,33.5-13.7,66.5-28.3,99.9-42,6.8-2.7,7.2-5.3,4.5-11.5C362,368.8,311,354.2,262.7,381c-39.6,22-53.9,63-36.7,103.6,17.7,42.1,57.3,60.7,101,47.5C366.8,520.1,393.7,485.9,392.4,447.5ZM285.1,410c16.8-8.1,35.3-5.8,46.9,5.9,1.9,1.9,7.6,4.5.8,7.3-23.3,10-46.6,19.8-70.2,29.7C260.2,433.1,268.3,418.1,285.1,410Z" transform="translate(-37.5 -302.3)"/><path class="cls-1" d="M731.2,377.2c-13-4.1-26-4-39.8-3.4-30.8,1.2-54.6,13.2-69.7,39.6-26.3,45.9-6.2,123.2,79.3,124.3,3.3-.2,9.4-.3,15.4-1.1,38.1-4.8,67.2-34.2,70.5-71.2C790.8,422.5,770.1,389.7,731.2,377.2ZM699.4,498.4c-25.9,0-43.5-18.1-43.4-44.3s18.4-42.8,43.9-42.7,42.6,17.8,42.7,43.9S724.8,498.4,699.4,498.4Z" transform="translate(-37.5 -302.3)"/><path class="cls-1" d="M959.1,526.4c0,4.8-1.6,6.2-6.2,6.1-10.4-.3-20.8-.5-31.2.1-6.5.3-8.5-1.5-8.4-8.3.5-24,.3-47.9.2-71.9a96,96,0,0,0-1.5-17c-2.9-15.1-12-23.8-25.4-25.2-15.2-1.7-28.4,5.2-34.6,18.2-3.4,7.2-4.6,14.9-4.6,22.9.1,24.3-.2,48.7.2,73,.2,6.7-1.8,8.6-8.4,8.3-10.3-.6-20.7-.4-31.1-.1-4.6.1-6.2-1.3-6.2-6.1q.1-72.4,0-144.9c0-4.4,1-6.7,5.9-6.2a61.7,61.7,0,0,0,8.6,0c12.2-.9,24.3-1.7,23.6,17.5,21.8-20.9,46.2-25.8,72.9-19.2s44.1,28.6,45.4,59.5S958.8,495.3,959.1,526.4Z" transform="translate(-37.5 -302.3)"/><path class="cls-1" d="M550.9,375.3l-15.2,36.5c-15.7,37.6-31.5,75.1-46.9,112.8-2.3,5.8-5.1,8.3-11.6,8-12.1-.8-26.5,3.4-35.8-1.7s-10.7-20.9-15.4-32c-15.9-37.5-31.3-75.2-46.8-112.8-1.4-3.2-3.7-6.2-2.9-10.8,14.2,0,28.4.4,42.6-.2,6.2-.2,6.8,3.9,8.3,7.8,10.2,27.4,20.5,54.9,30.8,82.3,1.3,3.6,3,7.1,5.3,12.5,12-32,23.8-62.2,34.6-92.8,2.8-8,6.5-10.2,14.4-9.8C524.7,375.8,537.2,375.3,550.9,375.3Z" transform="translate(-37.5 -302.3)"/><path class="cls-1" d="M603.6,523.7c0,7-1.8,9.3-9,8.9-10.7-.7-21.5-.4-32.2-.1-5.1.2-6.8-1.3-6.8-6.6q.3-55.8,0-111.6c0-4.6,1.6-7.1,5.6-9.2,6.7-3.3,13.1-7.3,19.6-11.1l22.5-5.6C603.4,433.5,603.2,478.6,603.6,523.7Z" transform="translate(-37.5 -302.3)"/><path class="cls-2" d="M613.3,384.7c-3.4.8-6.6,2.4-10,3.7L580.8,394c-3.5-25.1-1.7-50.6-4-75.9-.4-3.8,1.2-5.9,4.9-6.9,9.3-2.7,18.5-5.5,27.7-8.4,4.5-1.4,6.6-.3,6.8,4.7.8,23.2,1.6,46.5,2.6,69.6C619,381.4,617.7,383.7,613.3,384.7Z" transform="translate(-37.5 -302.3)"/></svg>