<svg xmlns="http://www.w3.org/2000/svg" xmlns:xlink="http://www.w3.org/1999/xlink" width="500" zoomAndPan="magnify" viewBox="0 0 375 374.999991" height="500" preserveAspectRatio="xMidYMid meet" version="1.0"><defs><g/><clipPath id="c312c038f5"><path d="M 40.523438 45.046875 L 323 45.046875 L 323 329 L 40.523438 329 Z M 40.523438 45.046875 " clip-rule="nonzero"/></clipPath><clipPath id="befef42db0"><path d="M 0.078125 2 L 51 2 L 51 9 L 0.078125 9 Z M 0.078125 2 " clip-rule="nonzero"/></clipPath><clipPath id="2ac7552dd3"><rect x="0" width="52" y="0" height="10"/></clipPath></defs><g clip-path="url(#c312c038f5)"><path fill="#ffffff" d="M 170.992188 154.828125 L 112.183594 154.828125 C 112.320312 152.875 112.542969 150.929688 112.84375 148.992188 C 113.144531 147.058594 113.527344 145.136719 113.992188 143.234375 C 114.453125 141.332031 114.996094 139.449219 115.617188 137.59375 C 116.238281 135.734375 116.933594 133.90625 117.707031 132.105469 C 118.480469 130.304688 119.328125 128.539062 120.25 126.8125 C 121.171875 125.082031 122.164062 123.394531 123.226562 121.75 C 124.292969 120.105469 125.421875 118.507812 126.617188 116.957031 C 127.816406 115.40625 129.074219 113.90625 130.398438 112.460938 C 131.722656 111.015625 133.101562 109.628906 134.539062 108.300781 C 135.980469 106.96875 137.472656 105.703125 139.015625 104.5 C 140.5625 103.292969 142.15625 102.15625 143.796875 101.085938 C 145.4375 100.015625 147.117188 99.015625 148.84375 98.085938 C 150.566406 97.15625 152.328125 96.300781 154.125 95.519531 C 155.921875 94.734375 157.746094 94.03125 159.601562 93.402344 C 161.457031 92.773438 163.335938 92.222656 165.238281 91.75 C 167.136719 91.277344 169.054688 90.886719 170.992188 90.574219 Z M 192.769531 90.46875 L 192.769531 154.828125 L 252.015625 154.828125 C 251.875 152.867188 251.648438 150.910156 251.34375 148.964844 C 251.039062 147.023438 250.652344 145.09375 250.1875 143.179688 C 249.71875 141.269531 249.171875 139.378906 248.546875 137.515625 C 247.917969 135.648438 247.214844 133.8125 246.433594 132.003906 C 245.652344 130.195312 244.796875 128.425781 243.867188 126.691406 C 242.9375 124.957031 241.9375 123.261719 240.867188 121.613281 C 239.792969 119.960938 238.65625 118.359375 237.449219 116.800781 C 236.242188 115.246094 234.972656 113.746094 233.636719 112.296875 C 232.304688 110.847656 230.914062 109.460938 229.464844 108.128906 C 228.011719 106.796875 226.507812 105.527344 224.953125 104.324219 C 223.394531 103.117188 221.792969 101.980469 220.140625 100.910156 C 218.488281 99.839844 216.792969 98.84375 215.054688 97.914062 C 213.320312 96.988281 211.546875 96.132812 209.738281 95.355469 C 207.933594 94.578125 206.09375 93.875 204.226562 93.253906 C 202.359375 92.628906 200.472656 92.085938 198.558594 91.617188 C 196.644531 91.152344 194.714844 90.769531 192.769531 90.46875 Z M 182.097656 274.511719 C 183.246094 274.511719 184.394531 274.480469 185.542969 274.421875 C 186.691406 274.367188 187.835938 274.28125 188.980469 274.164062 C 190.125 274.050781 191.265625 273.910156 192.402344 273.738281 C 193.535156 273.570312 194.667969 273.371094 195.796875 273.148438 C 196.921875 272.921875 198.042969 272.667969 199.15625 272.386719 C 200.273438 272.109375 201.378906 271.800781 202.476562 271.464844 C 203.578125 271.132812 204.667969 270.769531 205.75 270.382812 C 206.832031 269.992188 207.902344 269.578125 208.964844 269.140625 C 210.023438 268.699219 211.074219 268.230469 212.113281 267.742188 C 213.152344 267.25 214.175781 266.730469 215.191406 266.1875 C 216.203125 265.648438 217.203125 265.082031 218.1875 264.488281 C 219.175781 263.898438 220.144531 263.28125 221.097656 262.644531 C 222.054688 262.003906 222.992188 261.34375 223.917969 260.660156 C 224.839844 259.972656 225.746094 259.265625 226.632812 258.539062 C 227.519531 257.808594 228.390625 257.058594 229.242188 256.285156 C 230.09375 255.515625 230.925781 254.722656 231.738281 253.910156 C 232.550781 253.097656 233.34375 252.265625 234.113281 251.414062 C 234.886719 250.5625 235.636719 249.691406 236.367188 248.804688 C 237.09375 247.917969 237.800781 247.011719 238.488281 246.089844 C 239.171875 245.164062 239.832031 244.226562 240.472656 243.269531 C 241.109375 242.316406 241.726562 241.347656 242.316406 240.359375 C 242.910156 239.375 243.476562 238.375 244.015625 237.363281 C 244.558594 236.347656 245.078125 235.324219 245.570312 234.285156 C 246.058594 233.246094 246.527344 232.195312 246.96875 231.136719 C 247.40625 230.074219 247.820312 229.003906 248.210938 227.921875 C 248.597656 226.839844 248.960938 225.75 249.292969 224.648438 C 249.628906 223.550781 249.9375 222.445312 250.214844 221.328125 C 250.496094 220.214844 250.75 219.09375 250.976562 217.96875 C 251.199219 216.839844 251.398438 215.707031 251.566406 214.574219 C 251.738281 213.4375 251.878906 212.296875 251.992188 211.152344 C 252.109375 210.007812 252.195312 208.863281 252.25 207.714844 C 252.308594 206.566406 252.339844 205.417969 252.339844 204.269531 L 252.339844 176.609375 L 111.855469 176.609375 L 111.855469 204.269531 C 111.859375 205.417969 111.886719 206.566406 111.945312 207.714844 C 112.003906 208.863281 112.089844 210.007812 112.203125 211.152344 C 112.316406 212.296875 112.460938 213.4375 112.628906 214.574219 C 112.800781 215.707031 112.996094 216.839844 113.222656 217.96875 C 113.449219 219.09375 113.699219 220.214844 113.980469 221.328125 C 114.261719 222.445312 114.570312 223.550781 114.902344 224.648438 C 115.238281 225.75 115.597656 226.839844 115.988281 227.921875 C 116.375 229.003906 116.789062 230.074219 117.230469 231.136719 C 117.671875 232.195312 118.136719 233.246094 118.628906 234.285156 C 119.121094 235.324219 119.636719 236.347656 120.179688 237.363281 C 120.722656 238.375 121.289062 239.375 121.878906 240.359375 C 122.472656 241.347656 123.085938 242.316406 123.726562 243.269531 C 124.363281 244.226562 125.027344 245.164062 125.710938 246.089844 C 126.394531 247.011719 127.101562 247.917969 127.832031 248.804688 C 128.5625 249.691406 129.3125 250.5625 130.082031 251.414062 C 130.855469 252.265625 131.648438 253.097656 132.460938 253.910156 C 133.273438 254.722656 134.105469 255.515625 134.957031 256.285156 C 135.808594 257.058594 136.675781 257.808594 137.566406 258.539062 C 138.453125 259.265625 139.359375 259.972656 140.28125 260.660156 C 141.203125 261.34375 142.144531 262.003906 143.097656 262.644531 C 144.054688 263.28125 145.023438 263.898438 146.007812 264.488281 C 146.996094 265.082031 147.992188 265.648438 149.007812 266.1875 C 150.019531 266.730469 151.046875 267.25 152.085938 267.742188 C 153.121094 268.230469 154.171875 268.699219 155.234375 269.140625 C 156.296875 269.578125 157.367188 269.992188 158.449219 270.382812 C 159.53125 270.769531 160.621094 271.132812 161.71875 271.464844 C 162.820312 271.800781 163.925781 272.109375 165.039062 272.386719 C 166.15625 272.667969 167.277344 272.921875 168.402344 273.148438 C 169.527344 273.371094 170.660156 273.570312 171.796875 273.738281 C 172.933594 273.910156 174.074219 274.050781 175.21875 274.164062 C 176.359375 274.28125 177.507812 274.367188 178.652344 274.421875 C 179.800781 274.480469 180.949219 274.511719 182.097656 274.511719 Z M 181.882812 45.925781 L 170.992188 45.925781 L 170.992188 79.578125 L 192.769531 79.46875 L 192.769531 68.140625 C 342.839844 87.007812 333.898438 301.414062 181.878906 306.75 C 179.925781 306.746094 177.96875 306.699219 176.015625 306.601562 C 174.0625 306.507812 172.113281 306.363281 170.167969 306.171875 C 168.222656 305.976562 166.28125 305.738281 164.347656 305.449219 C 162.410156 305.164062 160.484375 304.828125 158.566406 304.449219 C 156.648438 304.066406 154.742188 303.636719 152.84375 303.160156 C 150.949219 302.6875 149.0625 302.164062 147.191406 301.597656 C 145.320312 301.03125 143.464844 300.417969 141.625 299.757812 C 139.78125 299.097656 137.957031 298.394531 136.152344 297.648438 C 134.34375 296.898438 132.558594 296.105469 130.789062 295.269531 C 129.019531 294.433594 127.273438 293.554688 125.550781 292.632812 C 123.824219 291.714844 122.125 290.75 120.445312 289.746094 C 118.769531 288.738281 117.117188 287.695312 115.488281 286.609375 C 113.863281 285.523438 112.265625 284.398438 110.695312 283.230469 C 109.121094 282.066406 107.582031 280.867188 106.070312 279.625 C 104.554688 278.386719 103.074219 277.109375 101.625 275.796875 C 100.175781 274.484375 98.761719 273.136719 97.375 271.753906 C 95.992188 270.371094 94.644531 268.957031 93.332031 267.507812 C 92.015625 266.058594 90.738281 264.578125 89.496094 263.070312 C 88.253906 261.558594 87.050781 260.015625 85.886719 258.445312 C 84.71875 256.875 83.59375 255.277344 82.503906 253.652344 C 81.417969 252.027344 80.371094 250.378906 79.363281 248.699219 C 78.359375 247.023438 77.394531 245.324219 76.46875 243.597656 C 75.546875 241.875 74.667969 240.128906 73.828125 238.363281 C 72.992188 236.59375 72.199219 234.808594 71.449219 233.003906 C 70.699219 231.195312 69.992188 229.371094 69.332031 227.53125 C 68.671875 225.691406 68.058594 223.835938 67.488281 221.964844 C 66.917969 220.09375 66.394531 218.210938 65.917969 216.3125 C 65.441406 214.417969 65.011719 212.507812 64.628906 210.59375 C 64.242188 208.675781 63.90625 206.75 63.617188 204.8125 C 63.328125 202.878906 63.089844 200.941406 62.894531 198.992188 C 62.699219 197.046875 62.554688 195.097656 62.457031 193.144531 C 62.359375 191.191406 62.308594 189.238281 62.304688 187.28125 L 40.523438 187.28125 C 40.527344 189.59375 40.589844 191.902344 40.707031 194.210938 C 40.820312 196.523438 40.996094 198.828125 41.222656 201.125 C 41.453125 203.425781 41.738281 205.71875 42.082031 208.007812 C 42.425781 210.292969 42.820312 212.570312 43.277344 214.835938 C 43.730469 217.105469 44.238281 219.359375 44.804688 221.601562 C 45.367188 223.839844 45.984375 226.070312 46.660156 228.28125 C 47.332031 230.492188 48.058594 232.683594 48.839844 234.859375 C 49.621094 237.039062 50.457031 239.191406 51.34375 241.328125 C 52.230469 243.460938 53.167969 245.574219 54.15625 247.664062 C 55.148438 249.753906 56.1875 251.816406 57.28125 253.855469 C 58.371094 255.890625 59.511719 257.902344 60.703125 259.882812 C 61.890625 261.867188 63.128906 263.816406 64.414062 265.738281 C 65.703125 267.660156 67.035156 269.550781 68.410156 271.40625 C 69.789062 273.261719 71.210938 275.082031 72.679688 276.871094 C 74.148438 278.65625 75.65625 280.40625 77.210938 282.117188 C 78.765625 283.828125 80.359375 285.503906 81.996094 287.136719 C 83.628906 288.769531 85.304688 290.363281 87.015625 291.914062 C 88.730469 293.46875 90.480469 294.976562 92.269531 296.441406 C 94.054688 297.910156 95.878906 299.332031 97.734375 300.707031 C 99.59375 302.085938 101.484375 303.414062 103.40625 304.699219 C 105.328125 305.984375 107.28125 307.21875 109.261719 308.40625 C 111.246094 309.597656 113.257812 310.734375 115.296875 311.824219 C 117.335938 312.914062 119.398438 313.953125 121.488281 314.941406 C 123.578125 315.929688 125.691406 316.867188 127.828125 317.753906 C 129.960938 318.636719 132.117188 319.46875 134.296875 320.25 C 136.472656 321.027344 138.664062 321.753906 140.878906 322.425781 C 143.089844 323.097656 145.316406 323.714844 147.558594 324.277344 C 149.800781 324.839844 152.058594 325.347656 154.324219 325.800781 C 156.589844 326.25 158.867188 326.648438 161.15625 326.988281 C 163.441406 327.328125 165.734375 327.613281 168.035156 327.839844 C 170.335938 328.066406 172.640625 328.238281 174.949219 328.355469 C 177.257812 328.46875 179.570312 328.527344 181.882812 328.527344 C 369.328125 320.742188 369.140625 53.648438 181.882812 45.925781 Z M 181.882812 45.925781 " fill-opacity="1" fill-rule="nonzero"/></g><g transform="matrix(1, 0, 0, 1, 154, 211)"><g clip-path="url(#2ac7552dd3)"><g clip-path="url(#befef42db0)"><g fill="#ffffff" fill-opacity="1"><g transform="translate(0.108046, 7.254897)"><g><path d="M 3.140625 0 L 2.828125 -1.015625 L 1.28125 -1.015625 L 0.96875 0 L 0 0 L 1.5 -4.28125 L 2.609375 -4.28125 L 4.125 0 Z M 2.625 -1.765625 C 2.332031 -2.691406 2.164062 -3.210938 2.125 -3.328125 C 2.09375 -3.453125 2.070312 -3.546875 2.0625 -3.609375 C 2 -3.367188 1.816406 -2.753906 1.515625 -1.765625 Z M 2.625 -1.765625 "/></g></g><g transform="translate(4.230708, 7.254897)"><g><path d="M 3.296875 -3.265625 L 3.296875 -2.8125 L 2.796875 -2.671875 C 2.890625 -2.523438 2.9375 -2.363281 2.9375 -2.1875 C 2.9375 -1.832031 2.8125 -1.554688 2.5625 -1.359375 C 2.320312 -1.171875 1.984375 -1.078125 1.546875 -1.078125 L 1.390625 -1.078125 L 1.265625 -1.09375 C 1.171875 -1.03125 1.125 -0.953125 1.125 -0.859375 C 1.125 -0.734375 1.285156 -0.671875 1.609375 -0.671875 L 2.171875 -0.671875 C 2.523438 -0.671875 2.796875 -0.59375 2.984375 -0.4375 C 3.171875 -0.289062 3.265625 -0.0664062 3.265625 0.234375 C 3.265625 0.609375 3.101562 0.898438 2.78125 1.109375 C 2.46875 1.328125 2.015625 1.4375 1.421875 1.4375 C 0.960938 1.4375 0.613281 1.351562 0.375 1.1875 C 0.132812 1.03125 0.015625 0.8125 0.015625 0.53125 C 0.015625 0.332031 0.078125 0.164062 0.203125 0.03125 C 0.328125 -0.09375 0.503906 -0.1875 0.734375 -0.25 C 0.648438 -0.28125 0.570312 -0.335938 0.5 -0.421875 C 0.4375 -0.515625 0.40625 -0.613281 0.40625 -0.71875 C 0.40625 -0.84375 0.4375 -0.945312 0.5 -1.03125 C 0.570312 -1.113281 0.675781 -1.191406 0.8125 -1.265625 C 0.644531 -1.335938 0.507812 -1.457031 0.40625 -1.625 C 0.3125 -1.789062 0.265625 -1.984375 0.265625 -2.203125 C 0.265625 -2.554688 0.378906 -2.828125 0.609375 -3.015625 C 0.835938 -3.210938 1.164062 -3.3125 1.59375 -3.3125 C 1.6875 -3.3125 1.796875 -3.300781 1.921875 -3.28125 C 2.046875 -3.269531 2.128906 -3.265625 2.171875 -3.265625 Z M 0.78125 0.453125 C 0.78125 0.578125 0.835938 0.675781 0.953125 0.75 C 1.078125 0.820312 1.242188 0.859375 1.453125 0.859375 C 1.773438 0.859375 2.023438 0.8125 2.203125 0.71875 C 2.390625 0.632812 2.484375 0.515625 2.484375 0.359375 C 2.484375 0.242188 2.425781 0.160156 2.3125 0.109375 C 2.207031 0.0664062 2.046875 0.046875 1.828125 0.046875 L 1.359375 0.046875 C 1.191406 0.046875 1.050781 0.0820312 0.9375 0.15625 C 0.832031 0.226562 0.78125 0.328125 0.78125 0.453125 Z M 1.109375 -2.1875 C 1.109375 -2.007812 1.148438 -1.867188 1.234375 -1.765625 C 1.316406 -1.671875 1.4375 -1.625 1.59375 -1.625 C 1.757812 -1.625 1.878906 -1.671875 1.953125 -1.765625 C 2.035156 -1.867188 2.078125 -2.007812 2.078125 -2.1875 C 2.078125 -2.582031 1.914062 -2.78125 1.59375 -2.78125 C 1.269531 -2.78125 1.109375 -2.582031 1.109375 -2.1875 Z M 1.109375 -2.1875 "/></g></g><g transform="translate(7.606448, 7.254897)"><g><path d="M 2.28125 -3.3125 C 2.40625 -3.3125 2.503906 -3.304688 2.578125 -3.296875 L 2.515625 -2.453125 C 2.441406 -2.472656 2.351562 -2.484375 2.25 -2.484375 C 1.96875 -2.484375 1.75 -2.410156 1.59375 -2.265625 C 1.4375 -2.117188 1.359375 -1.914062 1.359375 -1.65625 L 1.359375 0 L 0.46875 0 L 0.46875 -3.265625 L 1.140625 -3.265625 L 1.265625 -2.703125 L 1.3125 -2.703125 C 1.414062 -2.890625 1.550781 -3.035156 1.71875 -3.140625 C 1.894531 -3.253906 2.082031 -3.3125 2.28125 -3.3125 Z M 2.28125 -3.3125 "/></g></g><g transform="translate(10.319877, 7.254897)"><g><path d="M 1.8125 -2.6875 C 1.625 -2.6875 1.476562 -2.625 1.375 -2.5 C 1.269531 -2.382812 1.207031 -2.21875 1.1875 -2 L 2.4375 -2 C 2.4375 -2.21875 2.378906 -2.382812 2.265625 -2.5 C 2.148438 -2.625 2 -2.6875 1.8125 -2.6875 Z M 1.9375 0.0625 C 1.414062 0.0625 1.003906 -0.0820312 0.703125 -0.375 C 0.410156 -0.664062 0.265625 -1.078125 0.265625 -1.609375 C 0.265625 -2.148438 0.398438 -2.566406 0.671875 -2.859375 C 0.953125 -3.160156 1.332031 -3.3125 1.8125 -3.3125 C 2.269531 -3.3125 2.625 -3.179688 2.875 -2.921875 C 3.132812 -2.660156 3.265625 -2.300781 3.265625 -1.84375 L 3.265625 -1.40625 L 1.171875 -1.40625 C 1.179688 -1.15625 1.253906 -0.957031 1.390625 -0.8125 C 1.535156 -0.675781 1.734375 -0.609375 1.984375 -0.609375 C 2.179688 -0.609375 2.363281 -0.625 2.53125 -0.65625 C 2.707031 -0.695312 2.894531 -0.765625 3.09375 -0.859375 L 3.09375 -0.171875 C 2.9375 -0.0976562 2.769531 -0.0390625 2.59375 0 C 2.414062 0.0390625 2.195312 0.0625 1.9375 0.0625 Z M 1.9375 0.0625 "/></g></g><g transform="translate(13.850253, 7.254897)"><g><path d="M 3.296875 -3.265625 L 3.296875 -2.8125 L 2.796875 -2.671875 C 2.890625 -2.523438 2.9375 -2.363281 2.9375 -2.1875 C 2.9375 -1.832031 2.8125 -1.554688 2.5625 -1.359375 C 2.320312 -1.171875 1.984375 -1.078125 1.546875 -1.078125 L 1.390625 -1.078125 L 1.265625 -1.09375 C 1.171875 -1.03125 1.125 -0.953125 1.125 -0.859375 C 1.125 -0.734375 1.285156 -0.671875 1.609375 -0.671875 L 2.171875 -0.671875 C 2.523438 -0.671875 2.796875 -0.59375 2.984375 -0.4375 C 3.171875 -0.289062 3.265625 -0.0664062 3.265625 0.234375 C 3.265625 0.609375 3.101562 0.898438 2.78125 1.109375 C 2.46875 1.328125 2.015625 1.4375 1.421875 1.4375 C 0.960938 1.4375 0.613281 1.351562 0.375 1.1875 C 0.132812 1.03125 0.015625 0.8125 0.015625 0.53125 C 0.015625 0.332031 0.078125 0.164062 0.203125 0.03125 C 0.328125 -0.09375 0.503906 -0.1875 0.734375 -0.25 C 0.648438 -0.28125 0.570312 -0.335938 0.5 -0.421875 C 0.4375 -0.515625 0.40625 -0.613281 0.40625 -0.71875 C 0.40625 -0.84375 0.4375 -0.945312 0.5 -1.03125 C 0.570312 -1.113281 0.675781 -1.191406 0.8125 -1.265625 C 0.644531 -1.335938 0.507812 -1.457031 0.40625 -1.625 C 0.3125 -1.789062 0.265625 -1.984375 0.265625 -2.203125 C 0.265625 -2.554688 0.378906 -2.828125 0.609375 -3.015625 C 0.835938 -3.210938 1.164062 -3.3125 1.59375 -3.3125 C 1.6875 -3.3125 1.796875 -3.300781 1.921875 -3.28125 C 2.046875 -3.269531 2.128906 -3.265625 2.171875 -3.265625 Z M 0.78125 0.453125 C 0.78125 0.578125 0.835938 0.675781 0.953125 0.75 C 1.078125 0.820312 1.242188 0.859375 1.453125 0.859375 C 1.773438 0.859375 2.023438 0.8125 2.203125 0.71875 C 2.390625 0.632812 2.484375 0.515625 2.484375 0.359375 C 2.484375 0.242188 2.425781 0.160156 2.3125 0.109375 C 2.207031 0.0664062 2.046875 0.046875 1.828125 0.046875 L 1.359375 0.046875 C 1.191406 0.046875 1.050781 0.0820312 0.9375 0.15625 C 0.832031 0.226562 0.78125 0.328125 0.78125 0.453125 Z M 1.109375 -2.1875 C 1.109375 -2.007812 1.148438 -1.867188 1.234375 -1.765625 C 1.316406 -1.671875 1.4375 -1.625 1.59375 -1.625 C 1.757812 -1.625 1.878906 -1.671875 1.953125 -1.765625 C 2.035156 -1.867188 2.078125 -2.007812 2.078125 -2.1875 C 2.078125 -2.582031 1.914062 -2.78125 1.59375 -2.78125 C 1.269531 -2.78125 1.109375 -2.582031 1.109375 -2.1875 Z M 1.109375 -2.1875 "/></g></g><g transform="translate(17.225992, 7.254897)"><g><path d="M 2.53125 0 L 2.359375 -0.4375 L 2.34375 -0.4375 C 2.1875 -0.25 2.03125 -0.117188 1.875 -0.046875 C 1.71875 0.0234375 1.515625 0.0625 1.265625 0.0625 C 0.953125 0.0625 0.703125 -0.0234375 0.515625 -0.203125 C 0.335938 -0.390625 0.25 -0.644531 0.25 -0.96875 C 0.25 -1.320312 0.367188 -1.578125 0.609375 -1.734375 C 0.847656 -1.898438 1.210938 -1.992188 1.703125 -2.015625 L 2.265625 -2.03125 L 2.265625 -2.171875 C 2.265625 -2.503906 2.097656 -2.671875 1.765625 -2.671875 C 1.503906 -2.671875 1.195312 -2.59375 0.84375 -2.4375 L 0.546875 -3.03125 C 0.921875 -3.226562 1.335938 -3.328125 1.796875 -3.328125 C 2.234375 -3.328125 2.566406 -3.226562 2.796875 -3.03125 C 3.035156 -2.84375 3.15625 -2.554688 3.15625 -2.171875 L 3.15625 0 Z M 2.265625 -1.515625 L 1.921875 -1.5 C 1.671875 -1.488281 1.476562 -1.441406 1.34375 -1.359375 C 1.21875 -1.273438 1.15625 -1.144531 1.15625 -0.96875 C 1.15625 -0.71875 1.300781 -0.59375 1.59375 -0.59375 C 1.800781 -0.59375 1.960938 -0.648438 2.078125 -0.765625 C 2.203125 -0.890625 2.265625 -1.046875 2.265625 -1.234375 Z M 2.265625 -1.515625 "/></g></g><g transform="translate(20.835145, 7.254897)"><g><path d="M 2.28125 -3.3125 C 2.40625 -3.3125 2.503906 -3.304688 2.578125 -3.296875 L 2.515625 -2.453125 C 2.441406 -2.472656 2.351562 -2.484375 2.25 -2.484375 C 1.96875 -2.484375 1.75 -2.410156 1.59375 -2.265625 C 1.4375 -2.117188 1.359375 -1.914062 1.359375 -1.65625 L 1.359375 0 L 0.46875 0 L 0.46875 -3.265625 L 1.140625 -3.265625 L 1.265625 -2.703125 L 1.3125 -2.703125 C 1.414062 -2.890625 1.550781 -3.035156 1.71875 -3.140625 C 1.894531 -3.253906 2.082031 -3.3125 2.28125 -3.3125 Z M 2.28125 -3.3125 "/></g></g><g transform="translate(23.548574, 7.254897)"><g/></g><g transform="translate(25.100773, 7.254897)"><g><path d="M 2.78125 0 L 2.65625 -0.421875 L 2.609375 -0.421875 C 2.515625 -0.265625 2.378906 -0.144531 2.203125 -0.0625 C 2.023438 0.0195312 1.828125 0.0625 1.609375 0.0625 C 1.222656 0.0625 0.929688 -0.0390625 0.734375 -0.25 C 0.546875 -0.457031 0.453125 -0.753906 0.453125 -1.140625 L 0.453125 -3.265625 L 1.34375 -3.265625 L 1.34375 -1.359375 C 1.34375 -1.117188 1.382812 -0.941406 1.46875 -0.828125 C 1.550781 -0.710938 1.679688 -0.65625 1.859375 -0.65625 C 2.109375 -0.65625 2.285156 -0.734375 2.390625 -0.890625 C 2.503906 -1.054688 2.5625 -1.332031 2.5625 -1.71875 L 2.5625 -3.265625 L 3.453125 -3.265625 L 3.453125 0 Z M 2.78125 0 "/></g></g><g transform="translate(29.027951, 7.254897)"><g><path d="M 3.46875 0 L 2.578125 0 L 2.578125 -1.90625 C 2.578125 -2.132812 2.535156 -2.304688 2.453125 -2.421875 C 2.367188 -2.546875 2.238281 -2.609375 2.0625 -2.609375 C 1.8125 -2.609375 1.628906 -2.523438 1.515625 -2.359375 C 1.410156 -2.191406 1.359375 -1.914062 1.359375 -1.53125 L 1.359375 0 L 0.46875 0 L 0.46875 -3.265625 L 1.140625 -3.265625 L 1.265625 -2.84375 L 1.3125 -2.84375 C 1.414062 -3 1.550781 -3.113281 1.71875 -3.1875 C 1.894531 -3.269531 2.09375 -3.3125 2.3125 -3.3125 C 2.695312 -3.3125 2.984375 -3.207031 3.171875 -3 C 3.367188 -2.800781 3.46875 -2.507812 3.46875 -2.125 Z M 3.46875 0 "/></g></g><g transform="translate(32.955129, 7.254897)"><g/></g><g transform="translate(34.507328, 7.254897)"><g><path d="M 1.84375 -0.65625 C 2 -0.65625 2.1875 -0.6875 2.40625 -0.75 L 2.40625 -0.09375 C 2.175781 0.0078125 1.898438 0.0625 1.578125 0.0625 C 1.222656 0.0625 0.960938 -0.0234375 0.796875 -0.203125 C 0.640625 -0.390625 0.5625 -0.660156 0.5625 -1.015625 L 0.5625 -2.59375 L 0.140625 -2.59375 L 0.140625 -2.96875 L 0.625 -3.265625 L 0.890625 -3.953125 L 1.453125 -3.953125 L 1.453125 -3.265625 L 2.359375 -3.265625 L 2.359375 -2.59375 L 1.453125 -2.59375 L 1.453125 -1.015625 C 1.453125 -0.890625 1.488281 -0.796875 1.5625 -0.734375 C 1.632812 -0.679688 1.726562 -0.65625 1.84375 -0.65625 Z M 1.84375 -0.65625 "/></g></g><g transform="translate(37.101133, 7.254897)"><g><path d="M 1.359375 0 L 0.46875 0 L 0.46875 -3.265625 L 1.359375 -3.265625 Z M 0.421875 -3.609375 L 0.421875 -3.703125 C 0.753906 -4.085938 0.984375 -4.378906 1.109375 -4.578125 L 2.109375 -4.578125 L 2.109375 -4.515625 C 2.003906 -4.410156 1.828125 -4.257812 1.578125 -4.0625 C 1.335938 -3.863281 1.148438 -3.710938 1.015625 -3.609375 Z M 0.421875 -3.609375 "/></g></g><g transform="translate(38.924674, 7.254897)"><g><path d="M 1.84375 -0.65625 C 2 -0.65625 2.1875 -0.6875 2.40625 -0.75 L 2.40625 -0.09375 C 2.175781 0.0078125 1.898438 0.0625 1.578125 0.0625 C 1.222656 0.0625 0.960938 -0.0234375 0.796875 -0.203125 C 0.640625 -0.390625 0.5625 -0.660156 0.5625 -1.015625 L 0.5625 -2.59375 L 0.140625 -2.59375 L 0.140625 -2.96875 L 0.625 -3.265625 L 0.890625 -3.953125 L 1.453125 -3.953125 L 1.453125 -3.265625 L 2.359375 -3.265625 L 2.359375 -2.59375 L 1.453125 -2.59375 L 1.453125 -1.015625 C 1.453125 -0.890625 1.488281 -0.796875 1.5625 -0.734375 C 1.632812 -0.679688 1.726562 -0.65625 1.84375 -0.65625 Z M 1.84375 -0.65625 "/></g></g><g transform="translate(41.518479, 7.254897)"><g><path d="M 2.78125 0 L 2.65625 -0.421875 L 2.609375 -0.421875 C 2.515625 -0.265625 2.378906 -0.144531 2.203125 -0.0625 C 2.023438 0.0195312 1.828125 0.0625 1.609375 0.0625 C 1.222656 0.0625 0.929688 -0.0390625 0.734375 -0.25 C 0.546875 -0.457031 0.453125 -0.753906 0.453125 -1.140625 L 0.453125 -3.265625 L 1.34375 -3.265625 L 1.34375 -1.359375 C 1.34375 -1.117188 1.382812 -0.941406 1.46875 -0.828125 C 1.550781 -0.710938 1.679688 -0.65625 1.859375 -0.65625 C 2.109375 -0.65625 2.285156 -0.734375 2.390625 -0.890625 C 2.503906 -1.054688 2.5625 -1.332031 2.5625 -1.71875 L 2.5625 -3.265625 L 3.453125 -3.265625 L 3.453125 0 Z M 2.78125 0 "/></g></g><g transform="translate(45.445657, 7.254897)"><g><path d="M 1.359375 0 L 0.46875 0 L 0.46875 -4.53125 L 1.359375 -4.53125 Z M 1.359375 0 "/></g></g><g transform="translate(47.269198, 7.254897)"><g><path d="M 1.171875 -1.640625 C 1.171875 -1.316406 1.222656 -1.070312 1.328125 -0.90625 C 1.441406 -0.738281 1.613281 -0.65625 1.84375 -0.65625 C 2.082031 -0.65625 2.253906 -0.734375 2.359375 -0.890625 C 2.460938 -1.054688 2.515625 -1.304688 2.515625 -1.640625 C 2.515625 -1.960938 2.460938 -2.203125 2.359375 -2.359375 C 2.253906 -2.523438 2.082031 -2.609375 1.84375 -2.609375 C 1.601562 -2.609375 1.429688 -2.523438 1.328125 -2.359375 C 1.222656 -2.203125 1.171875 -1.960938 1.171875 -1.640625 Z M 3.421875 -1.640625 C 3.421875 -1.109375 3.28125 -0.691406 3 -0.390625 C 2.726562 -0.0859375 2.34375 0.0625 1.84375 0.0625 C 1.53125 0.0625 1.253906 -0.00390625 1.015625 -0.140625 C 0.773438 -0.285156 0.585938 -0.484375 0.453125 -0.734375 C 0.328125 -0.992188 0.265625 -1.296875 0.265625 -1.640625 C 0.265625 -2.171875 0.40625 -2.582031 0.6875 -2.875 C 0.96875 -3.164062 1.359375 -3.3125 1.859375 -3.3125 C 2.171875 -3.3125 2.445312 -3.242188 2.6875 -3.109375 C 2.925781 -2.972656 3.109375 -2.773438 3.234375 -2.515625 C 3.359375 -2.265625 3.421875 -1.972656 3.421875 -1.640625 Z M 3.421875 -1.640625 "/></g></g></g></g></g></g></svg>